<svg version="1.2" xmlns="http://www.w3.org/2000/svg" viewBox="0 0 32 32" width="32" height="32">
	<title>squirrel</title>
	<style>
		.s0 { fill: #ffffff } 
		.s1 { fill: none;stroke: #0066ff;stroke-linecap: round;stroke-linejoin: round;stroke-width: 2 } 
	</style>
	<path id="Shape 1" fill-rule="evenodd" class="s0" d="m15.5 30c-8 0-14.5-6.5-14.5-14.5 0-8 6.5-14.5 14.5-14.5 8 0 14.5 6.5 14.5 14.5 0 8-6.5 14.5-14.5 14.5z"/>
	<path class="s0" d="m19.2 26c0.4-0.4 0.7-1 0.8-1.5 0.1-0.6 0-1.2-0.3-1.7-0.2-0.5-0.6-1-1-1.3-0.5-0.3-1.1-0.5-1.7-0.5"/>
	<path class="s1" d="m20 24q0-0.6 0.2-1.1 0.3-0.6 0.7-1 0.4-0.4 1-0.7 0.5-0.2 1.1-0.2h1q0.4 0 0.8-0.2 0.3-0.1 0.6-0.4 0.3-0.3 0.4-0.6 0.2-0.4 0.2-0.8v-2q0-0.8-0.3-1.5-0.3-0.8-0.9-1.3-0.5-0.6-1.3-0.9-0.7-0.3-1.5-0.3v-5"/>
	<path class="s1" d="m22 17"/>
	<path class="s1" d="m22 10q-0.8 0-1.5 0.3-0.8 0.3-1.3 0.9-0.6 0.5-0.9 1.3-0.3 0.7-0.3 1.5-1.4 0-2.7 0.5-1.3 0.6-2.2 1.6-1 0.9-1.6 2.2-0.5 1.3-0.5 2.7c0-5 4-5 4-10.5 0-1.2-0.5-2.3-1.3-3.2-0.9-0.8-2-1.3-3.2-1.3-1.2 0-2.3 0.5-3.2 1.3-0.8 0.9-1.3 2-1.3 3.2 0 0.7 0.3 1.3 0.7 1.8 0.5 0.4 1.1 0.7 1.8 0.7 0.7 0 1.3-0.3 1.8-0.7 0.4-0.5 0.7-1.1 0.7-1.8 0 3.5-4 4.5-4 10.5 0 2.8 2.2 5 5 5h10"/>
</svg>